<?xml version="1.0" standalone="no"?>
<!DOCTYPE svg PUBLIC "-//W3C//DTD SVG 20010904//EN"
 "http://www.w3.org/TR/2001/REC-SVG-20010904/DTD/svg10.dtd">
<svg version="1.0" xmlns="http://www.w3.org/2000/svg"
 width="1300.000000pt" height="1228.000000pt" viewBox="0 0 1300.000000 1228.000000"
 preserveAspectRatio="xMidYMid meet">

<g transform="translate(0.000000,1228.000000) scale(0.100000,-0.100000)"
fill="#000000" stroke="none">
<path d="M6048 12141 c-31 -3 -62 -11 -67 -16 -12 -12 -25 -128 -41 -360 -17
-242 -17 -244 -46 -251 -13 -3 -102 -14 -197 -23 -170 -17 -172 -17 -194 2
-13 11 -23 24 -23 28 0 5 -22 43 -49 86 -27 43 -88 145 -136 227 l-88 148 -39
-5 c-38 -5 -200 -75 -206 -90 -2 -4 -8 -5 -12 -2 -10 6 -5 -193 10 -425 4 -74
5 -138 2 -142 -9 -9 -316 -98 -338 -98 -9 0 -50 28 -93 63 -42 35 -114 93
-161 129 -47 36 -119 95 -160 132 -41 36 -79 66 -85 65 -15 0 -238 -172 -243
-188 -3 -9 0 -11 8 -6 9 5 10 2 5 -14 -5 -16 12 -60 61 -159 73 -150 136 -314
125 -329 -8 -14 -167 -117 -213 -139 l-37 -17 -38 28 c-69 53 -227 187 -304
261 -112 105 -120 109 -163 89 -19 -9 -68 -46 -108 -81 -40 -35 -94 -80 -120
-100 -27 -20 -48 -42 -48 -49 0 -21 56 -173 110 -301 28 -65 53 -136 56 -159
17 -121 -82 -221 -201 -202 -19 3 -77 30 -129 59 -53 29 -130 72 -173 96 -43
23 -109 63 -147 87 -37 25 -73 45 -80 45 -10 0 -164 -151 -239 -236 l-27 -30
72 -96 c40 -53 110 -140 154 -195 88 -108 114 -149 114 -185 0 -34 -33 -82
-109 -160 -53 -54 -71 -67 -87 -61 -28 10 -218 118 -369 208 -71 43 -133 79
-137 81 -11 7 -208 -218 -208 -237 0 -9 -5 -19 -11 -21 -5 -2 12 -34 40 -70
27 -37 69 -95 92 -130 46 -68 78 -110 180 -233 92 -111 94 -115 65 -158 -50
-74 -120 -153 -145 -164 -43 -20 -88 -15 -164 18 -104 45 -409 149 -418 143
-5 -3 -9 -10 -9 -15 0 -6 -23 -49 -52 -97 -110 -186 -107 -179 -94 -192 8 -10
8 -11 -4 -5 -9 5 -7 -1 5 -15 23 -27 290 -268 358 -323 25 -20 58 -53 73 -72
l26 -34 -62 -123 c-34 -68 -69 -128 -77 -135 -9 -7 -35 -10 -66 -7 -90 8 -461
21 -479 16 -9 -2 -17 -11 -17 -20 1 -27 -11 -125 -18 -157 -20 -97 -11 -111
117 -174 160 -80 317 -199 341 -260 11 -27 7 -46 -26 -116 -13 -27 -33 -71
-44 -96 -12 -26 -30 -54 -41 -64 -19 -17 -152 -44 -403 -80 -67 -10 -119 -23
-129 -32 -15 -14 -18 -35 -18 -139 l0 -122 83 -42 c114 -58 334 -198 358 -228
30 -38 33 -67 19 -161 -17 -107 -36 -128 -153 -166 -45 -15 -114 -44 -152 -65
-39 -21 -93 -46 -120 -54 l-50 -17 1 -83 c1 -46 4 -88 7 -93 3 -5 8 -22 11
-38 6 -33 16 -41 71 -56 22 -6 47 -14 55 -19 9 -4 63 -22 120 -40 170 -52 224
-72 244 -91 16 -15 21 -36 24 -107 6 -124 9 -122 -304 -277 -92 -46 -92 -46
-96 -88 -5 -41 9 -287 16 -294 6 -6 140 -24 260 -34 66 -6 134 -16 152 -24 38
-16 66 -64 84 -146 19 -87 12 -100 -92 -170 -50 -33 -122 -86 -160 -116 l-69
-56 6 -53 c3 -30 17 -93 31 -141 15 -49 28 -95 31 -105 3 -9 15 -19 26 -22 46
-12 201 -5 299 14 57 11 111 20 122 20 25 0 136 -116 164 -173 l23 -47 -20
-28 c-11 -16 -68 -75 -128 -132 -59 -56 -107 -107 -105 -111 1 -5 -2 -9 -8 -9
-5 0 -10 -7 -10 -15 0 -8 -8 -15 -19 -15 -10 0 -25 -8 -32 -17 -12 -14 -12
-16 0 -8 10 6 12 4 7 -4 -5 -7 -11 -10 -14 -7 -9 10 -52 -36 -52 -56 0 -54
136 -238 190 -257 29 -9 43 -6 135 34 56 25 108 45 115 45 7 0 44 9 83 21 39
11 80 18 94 14 32 -8 113 -84 137 -129 l19 -35 -26 -43 c-14 -24 -43 -61 -64
-83 -73 -78 -143 -163 -143 -173 0 -6 -4 -12 -8 -14 -16 -6 -54 -80 -67 -126
-18 -69 -9 -103 41 -164 107 -129 125 -132 249 -47 23 15 68 36 100 47 33 11
109 41 170 66 112 47 135 53 135 36 0 -13 -64 -157 -153 -342 l-75 -156 43
-65 c51 -75 201 -227 225 -227 9 0 25 9 34 19 10 11 48 32 84 47 72 29 193
105 308 191 92 69 111 69 201 2 134 -102 140 -118 74 -203 -22 -28 -60 -94
-85 -146 -25 -52 -57 -114 -70 -137 -14 -22 -22 -44 -19 -47 4 -3 1 -6 -5 -6
-7 0 -12 -6 -12 -13 0 -7 -11 -41 -24 -75 -14 -34 -20 -60 -15 -57 5 4 9 -1 9
-9 0 -8 44 -46 98 -84 53 -39 111 -82 127 -96 17 -14 33 -26 38 -26 15 0 170
156 193 196 13 22 39 54 57 70 17 17 57 58 88 93 l57 62 79 -30 c90 -35 161
-78 168 -102 6 -17 -51 -382 -80 -514 -24 -112 -28 -105 83 -147 173 -64 176
-65 215 -35 19 14 118 107 220 207 112 109 192 180 203 179 11 0 46 -15 79
-32 l60 -32 3 -50 c1 -27 -9 -158 -22 -290 -14 -131 -23 -242 -21 -246 3 -3
21 -9 42 -12 36 -5 240 -48 293 -62 24 -6 34 5 145 167 162 235 191 273 220
286 33 15 176 14 234 -1 26 -7 51 -22 62 -37 20 -27 55 -183 91 -397 l23 -133
125 0 c171 0 188 6 226 77 153 288 204 370 236 382 12 4 46 3 77 -1 31 -5 71
-7 89 -4 41 6 67 -17 81 -71 10 -40 60 -257 82 -355 8 -32 18 -59 24 -60 5 -2
75 -1 154 2 l145 5 8 30 c5 17 20 105 34 198 13 92 32 191 42 219 16 49 20 53
61 65 24 7 80 17 125 22 80 9 81 8 110 -19 15 -15 78 -128 140 -251 l111 -224
45 3 c61 4 200 29 280 50 64 17 65 18 71 57 4 22 12 110 18 195 11 142 25 261
36 317 4 16 26 32 82 58 83 38 111 42 151 21 15 -8 92 -81 172 -161 164 -165
216 -205 270 -205 45 0 132 42 164 81 24 28 25 33 26 206 1 262 32 371 119
430 44 30 119 31 176 3 43 -21 214 -158 300 -240 48 -47 161 -120 185 -120 15
0 140 101 141 114 7 84 -19 500 -40 636 -7 46 -5 61 10 93 41 80 160 118 257
82 42 -16 170 -109 330 -239 45 -36 60 -43 92 -41 50 3 101 35 147 93 21 26
57 69 81 95 37 40 43 53 37 75 -3 15 -47 136 -96 270 -49 134 -89 252 -89 263
0 30 34 90 72 126 35 34 145 83 185 83 12 0 91 -31 175 -68 84 -38 179 -77
210 -87 l57 -19 23 29 c143 181 186 244 172 254 -5 3 -13 13 -19 23 -5 9 -65
97 -132 197 -67 99 -127 198 -134 219 -10 35 -9 43 14 79 35 55 118 123 151
123 14 0 75 -18 135 -40 60 -22 111 -40 115 -40 4 0 47 -16 96 -35 120 -47
133 -46 170 11 37 58 105 200 114 235 4 17 0 32 -12 45 -9 10 -37 44 -62 74
-44 54 -76 90 -221 244 -41 43 -77 84 -81 91 -4 7 6 46 22 86 16 41 32 91 35
111 7 43 47 95 84 110 14 5 124 14 243 19 238 9 253 13 281 72 18 37 14 104
-7 146 -9 16 -64 73 -123 127 -218 200 -258 239 -264 254 -6 14 31 126 69 211
35 76 46 81 184 90 68 5 166 12 219 15 l97 7 5 36 c15 93 19 251 8 251 -13 0
-128 53 -303 138 -82 40 -120 64 -128 82 -12 26 -7 146 12 265 6 39 11 77 10
87 -2 37 71 66 278 114 63 15 121 32 128 38 8 8 13 52 15 141 l2 130 -55 18
c-176 60 -353 143 -388 180 -27 31 -42 102 -42 203 0 90 10 113 50 114 8 0 40
13 70 29 30 16 98 51 150 78 51 27 103 62 114 76 l20 27 -29 121 c-16 67 -34
128 -41 137 -9 12 -38 16 -160 17 -174 2 -272 17 -295 44 -8 10 -31 79 -51
152 -55 202 -54 184 -11 216 88 66 323 258 369 301 15 14 17 7 -75 227 l-50
120 -41 -3 c-23 -1 -114 -20 -203 -42 -89 -21 -183 -42 -209 -45 -46 -7 -47
-7 -72 34 -43 67 -138 299 -129 314 4 7 67 68 138 136 137 130 195 203 189
235 -2 10 -21 49 -42 85 -22 36 -51 89 -65 117 -41 82 -32 81 -233 21 -279
-84 -276 -84 -313 -61 -43 28 -191 163 -191 176 0 10 76 116 173 240 28 37 69
98 89 136 l37 68 -74 68 c-41 37 -100 103 -132 147 -35 48 -62 78 -70 75 -20
-8 -171 -112 -228 -156 -74 -59 -188 -114 -220 -106 -14 4 -62 34 -106 69
l-80 62 5 42 c3 23 23 98 45 165 59 186 79 260 79 291 0 23 -25 51 -129 150
-71 67 -135 123 -142 125 -7 1 -28 -11 -47 -29 -75 -67 -119 -100 -186 -137
-38 -22 -100 -58 -139 -80 -106 -63 -117 -63 -206 -3 -41 28 -99 73 -129 99
l-53 48 26 64 c26 67 114 315 127 362 12 39 -38 92 -189 202 -110 80 -123 87
-139 74 -9 -8 -77 -64 -151 -124 -73 -60 -170 -139 -214 -176 -44 -38 -85 -68
-90 -68 -5 0 -42 15 -81 33 -39 19 -95 44 -124 57 -75 34 -76 35 -63 137 11
88 39 393 44 467 l2 40 -121 31 c-203 54 -186 55 -214 -11 -17 -43 -46 -81
-115 -150 -50 -51 -117 -131 -149 -179 -33 -47 -63 -88 -68 -91 -4 -3 -30 1
-56 9 -26 8 -87 27 -137 41 -137 41 -131 37 -143 103 -17 88 -50 327 -58 420
l-7 82 -41 5 c-80 10 -281 22 -293 18 -7 -2 -13 -14 -13 -26 0 -28 -80 -443
-92 -478 -5 -14 -19 -29 -31 -32 -12 -3 -111 -1 -219 3 -145 6 -202 11 -214
22 -23 19 -166 313 -230 471 l-19 48 -90 -2 c-49 0 -116 -4 -147 -7z m632
-765 c19 -3 132 -8 250 -10 l215 -3 170 -48 c94 -26 204 -54 245 -61 106 -18
409 -91 505 -121 70 -22 191 -72 385 -160 30 -14 132 -51 225 -83 94 -32 195
-69 225 -82 85 -38 466 -245 518 -282 26 -18 97 -66 157 -108 282 -195 570
-433 738 -611 263 -279 466 -526 617 -752 51 -77 124 -182 163 -234 109 -148
128 -182 240 -431 223 -497 283 -676 351 -1045 30 -161 41 -277 56 -570 30
-596 38 -1074 20 -1198 -39 -263 -114 -651 -156 -802 -41 -146 -109 -349 -185
-556 -39 -107 -80 -221 -91 -253 -29 -87 -71 -172 -125 -252 -370 -548 -363
-540 -598 -830 -67 -82 -150 -187 -185 -234 -178 -235 -275 -324 -618 -563
-364 -255 -499 -333 -822 -477 -47 -21 -128 -58 -180 -82 -199 -94 -277 -127
-450 -189 -92 -33 -228 -65 -370 -89 -74 -12 -236 -40 -360 -63 -217 -39 -233
-41 -477 -45 -238 -4 -280 0 -243 23 16 10 12 67 -10 135 -11 34 -20 86 -20
115 0 70 19 166 38 188 22 25 80 22 123 -7 43 -29 54 -64 70 -217 15 -148 43
-207 79 -164 21 26 6 196 -22 248 -13 23 -26 44 -31 45 -4 2 -15 18 -23 35
-16 30 -16 31 17 59 49 41 87 60 125 61 27 1 40 -7 69 -39 31 -35 35 -43 30
-80 -12 -91 67 -214 138 -214 27 0 97 27 97 37 0 7 -60 56 -93 76 -28 17 -29
21 -23 70 3 29 1 79 -6 111 -11 58 -11 60 16 83 43 36 88 31 149 -18 l51 -40
33 38 c18 21 32 46 33 56 0 41 56 73 188 107 23 6 42 15 42 20 0 15 -46 12
-85 -4 -19 -8 -35 -13 -35 -11 0 3 -12 0 -27 -6 -16 -6 -37 -13 -48 -15 -68
-11 -248 -49 -355 -74 -69 -16 -152 -32 -185 -35 -82 -9 -257 -45 -272 -57 -6
-5 -35 -9 -63 -10 -43 0 -57 5 -79 26 -39 38 -92 36 -139 -5 -28 -25 -41 -30
-65 -25 -16 3 -39 6 -51 6 -11 0 -34 11 -50 25 -16 13 -44 27 -63 31 -43 8
-104 -1 -115 -18 -11 -18 -10 -76 2 -83 5 -3 38 -1 74 5 55 10 68 9 97 -6 47
-24 58 -42 57 -95 0 -25 5 -56 11 -68 11 -20 17 -21 70 -15 32 3 65 2 73 -2 8
-5 36 -33 62 -62 l47 -54 -3 -86 -3 -86 -30 -8 c-16 -4 -129 -15 -250 -24
-192 -15 -255 -15 -495 -5 -274 12 -378 24 -717 82 -257 44 -544 131 -848 260
-796 334 -942 420 -1321 774 -76 72 -170 163 -209 204 -38 40 -117 112 -175
159 -135 110 -198 170 -217 207 -9 16 -69 91 -134 166 -144 167 -166 200 -364
564 -229 418 -371 721 -445 945 -114 347 -235 802 -249 937 -23 217 -34 577
-26 827 4 138 7 285 6 326 -4 129 93 625 175 905 83 283 231 642 414 1010 129
258 168 326 281 490 72 105 171 237 218 295 48 58 116 141 151 185 97 119 193
218 415 424 266 246 320 294 518 454 171 139 247 192 372 262 39 21 106 62
150 90 139 91 376 230 485 287 131 67 250 109 525 187 229 64 694 169 867 196
57 8 137 21 178 28 78 14 512 16 580 3z m-5990 -5370 c0 -2 -7 -7 -16 -10 -8
-3 -12 -2 -9 4 6 10 25 14 25 6z m6117 -4398 c35 -33 30 -70 -14 -112 -21 -20
-43 -36 -50 -36 -15 0 -103 107 -103 126 0 8 0 17 -1 22 0 11 40 20 95 21 38
1 55 -4 73 -21z"/>
<path d="M5825 10810 c-12 -13 -15 -27 -11 -45 6 -23 11 -26 44 -23 32 3 37 7
40 30 2 18 -4 31 -20 42 -29 20 -31 20 -53 -4z"/>
<path d="M7135 10816 c-16 -8 -43 -27 -59 -44 -25 -27 -28 -37 -24 -75 5 -42
3 -45 -28 -62 -104 -56 -110 -165 -12 -225 37 -22 107 -26 157 -9 28 10 37 9
61 -9 16 -12 46 -24 67 -28 33 -5 44 -2 71 21 44 37 41 47 -16 39 -39 -5 -52
-2 -72 14 l-25 20 21 24 c12 12 26 37 31 53 10 28 13 30 56 27 25 -2 48 2 52
8 13 21 -17 40 -63 40 -25 0 -61 5 -79 12 -28 10 -36 10 -49 -3 -14 -14 -13
-18 11 -33 23 -15 25 -21 19 -54 -9 -49 -12 -54 -33 -43 -18 10 -91 121 -91
139 0 5 22 24 49 41 27 18 52 39 55 47 17 45 -6 96 -49 108 -11 3 -33 -1 -50
-8z m53 -50 c9 -21 7 -29 -24 -60 -39 -40 -49 -43 -58 -20 -10 27 -7 45 15 75
25 35 52 37 67 5z m-97 -198 c12 -24 35 -60 52 -81 24 -32 27 -41 16 -48 -40
-25 -102 -1 -132 52 -21 36 -21 37 -3 78 11 22 25 41 32 41 8 0 23 -19 35 -42z"/>
<path d="M6493 10723 c-71 -14 -97 -105 -47 -170 28 -37 53 -41 129 -22 52 13
65 26 85 88 9 28 24 50 38 57 50 25 50 37 0 31 -31 -4 -59 -1 -82 8 -34 14
-76 17 -123 8z m87 -45 c11 -12 20 -35 20 -50 0 -31 -39 -78 -64 -78 -37 0
-60 85 -36 131 14 26 54 24 80 -3z"/>
<path d="M6185 10709 c-16 -6 -57 -12 -89 -14 -95 -7 -124 -25 -73 -44 21 -8
25 -18 30 -78 13 -136 12 -141 -55 -157 -54 -13 -74 32 -83 191 l-4 68 -33 -3
c-63 -7 -85 -32 -50 -58 22 -16 31 -173 11 -210 -16 -31 -6 -40 26 -26 14 7
42 12 61 12 19 0 44 4 54 10 10 5 59 11 109 13 50 2 94 7 97 10 3 3 -8 12 -24
21 -29 15 -30 18 -34 103 -2 48 -2 94 0 101 3 9 19 12 51 10 54 -4 56 -8 68
-143 l8 -90 45 3 c58 5 85 19 53 28 -27 8 -30 16 -39 128 -9 124 -40 153 -129
125z"/>
<path d="M7675 10674 c-9 -25 -15 -47 -12 -50 9 -9 36 8 42 27 8 24 33 24 80
2 24 -11 35 -22 32 -33 -3 -8 -22 -71 -42 -140 -52 -175 -47 -167 -95 -175
-53 -9 -43 -18 44 -38 38 -9 82 -24 99 -32 41 -20 46 -11 14 23 -15 16 -27 33
-27 39 0 6 15 60 34 120 19 59 39 127 45 149 6 23 17 44 25 47 7 3 32 -3 54
-13 38 -17 42 -23 42 -55 0 -42 17 -46 30 -7 6 15 15 35 21 45 6 11 8 21 6 23
-2 3 -64 22 -138 44 -74 21 -151 46 -171 54 -55 23 -64 20 -83 -30z"/>
<path d="M5694 10640 c-14 -5 -23 -20 -26 -40 -5 -31 -4 -31 36 -28 40 3 41 4
41 41 1 39 -9 44 -51 27z"/>
<path d="M5574 10619 c-17 -5 -37 -16 -44 -24 -11 -13 -8 -17 18 -26 34 -12
34 -12 34 -171 0 -81 10 -96 39 -62 9 11 23 14 47 10 19 -3 44 0 55 6 20 10
19 12 -13 27 -38 18 -49 44 -55 136 -4 70 -19 115 -37 114 -7 0 -27 -5 -44
-10z"/>
<path d="M5345 10574 c-22 -7 -55 -31 -74 -51 -31 -36 -33 -41 -28 -95 6 -71
35 -120 84 -143 34 -16 39 -16 100 0 65 18 97 38 90 59 -5 13 -27 12 -85 -6
-37 -11 -47 -10 -70 3 -17 9 -28 25 -30 41 -3 24 2 28 77 55 88 31 93 38 61
90 -15 26 -68 66 -82 62 -2 0 -21 -7 -43 -15z m55 -53 c14 -28 15 -27 -34 -60
-32 -23 -46 -27 -55 -18 -17 17 -13 41 10 71 24 31 64 34 79 7z"/>
<path d="M6430 10490 c-18 -25 -19 -30 -6 -30 24 0 19 -40 -8 -69 -24 -25 -24
-27 -9 -59 23 -48 50 -61 124 -63 74 -2 113 14 153 61 19 23 26 43 26 74 0 69
-13 78 -117 81 -63 2 -99 8 -116 20 -24 15 -26 15 -47 -15z m223 -80 c13 -11
-18 -75 -44 -94 -30 -20 -98 -21 -127 0 -41 29 -23 99 28 106 37 5 134 -3 143
-12z"/>
<path d="M5012 10465 c-50 -31 -72 -69 -72 -123 0 -74 45 -143 102 -157 52
-13 210 57 185 82 -4 3 -30 -1 -58 -10 -28 -10 -61 -17 -74 -17 -26 0 -75 36
-75 55 0 7 26 23 58 35 110 41 123 61 75 118 -39 46 -85 51 -141 17z m73 -31
c9 -9 15 -26 13 -37 -4 -25 -62 -62 -83 -53 -22 8 -18 56 7 83 25 27 41 29 63
7z"/>
<path d="M8084 10411 c-38 -23 -74 -94 -74 -145 0 -79 62 -133 167 -143 47 -5
53 -4 47 10 -3 9 -23 21 -44 27 -55 15 -90 51 -90 95 0 42 8 43 82 15 90 -34
118 -22 118 50 0 45 -15 67 -60 90 -49 25 -106 26 -146 1z m130 -54 c18 -24
19 -29 6 -37 -17 -11 -71 -13 -94 -4 -21 8 -20 38 0 59 23 23 63 15 88 -18z"/>
<path d="M4704 10344 c-27 -14 -77 -40 -111 -57 -56 -27 -79 -47 -54 -47 22 0
62 -58 86 -125 31 -84 28 -96 -31 -115 -48 -16 -61 -3 -114 115 -26 57 -49 95
-58 95 -8 0 -31 -13 -51 -28 -40 -32 -149 -92 -165 -92 -6 0 -34 -11 -63 -24
-39 -19 -57 -34 -72 -65 -12 -22 -21 -47 -21 -55 0 -19 58 -86 74 -86 29 -1
37 -16 24 -44 -11 -26 -10 -30 14 -47 23 -17 26 -25 21 -54 -7 -42 15 -80 52
-89 35 -9 133 35 175 79 40 42 51 105 25 154 -9 18 -15 34 -13 36 4 4 217 105
301 143 63 29 92 51 47 37 -12 -4 -28 -1 -37 7 -22 18 -85 158 -79 175 7 18
71 47 89 40 8 -3 32 -49 52 -101 43 -108 48 -111 118 -74 42 23 42 23 14 26
-26 3 -34 14 -72 96 -43 93 -66 126 -89 126 -7 0 -35 -12 -62 -26z m-314 -219
c6 -8 29 -48 50 -89 l38 -74 -27 -26 c-18 -18 -38 -26 -61 -26 -22 0 -58 -14
-101 -40 -69 -41 -99 -49 -99 -27 0 17 11 30 46 55 37 25 67 82 58 109 -4 10
-14 26 -23 36 -15 17 -13 21 26 58 45 41 73 49 93 24z m-186 -100 c33 -35 38
-70 14 -100 -25 -32 -39 -31 -77 1 -36 30 -39 61 -10 98 26 33 44 33 73 1z
m180 -207 c26 -36 20 -76 -15 -109 -30 -28 -86 -46 -113 -36 -22 9 -39 78 -23
94 13 13 118 73 129 73 4 0 14 -10 22 -22z"/>
<path d="M4312 10328 c-30 -30 -3 -83 39 -76 32 5 45 31 31 62 -13 28 -49 35
-70 14z"/>
<path d="M8375 10320 c-4 -13 0 -31 9 -45 9 -14 19 -44 22 -68 l6 -43 -58 -26
c-33 -14 -67 -28 -78 -32 -15 -5 -16 -9 -6 -21 18 -22 45 -18 98 15 l47 29 7
-26 c4 -15 5 -37 2 -50 -7 -27 8 -48 49 -70 45 -23 53 -6 33 74 -9 37 -19 76
-22 85 -4 12 9 23 46 42 29 14 63 26 76 26 32 0 32 28 0 36 -17 4 -39 -3 -70
-21 -25 -15 -50 -24 -56 -20 -5 3 -10 24 -10 46 0 66 -78 122 -95 69z"/>
<path d="M8723 10223 c-11 -22 -29 -39 -40 -41 -15 -2 -19 -9 -16 -25 3 -14
-11 -52 -35 -97 -22 -41 -43 -85 -46 -97 -8 -27 18 -53 71 -72 39 -14 260
-147 345 -207 l47 -33 -2 47 c-1 45 4 55 106 204 l108 158 -28 10 c-15 6 -41
16 -56 22 -34 13 -42 7 -27 -22 10 -19 0 -38 -85 -166 -53 -80 -102 -147 -109
-150 -16 -6 -59 10 -79 31 -28 27 -20 56 43 159 33 55 59 100 58 100 -2 1 -28
10 -58 20 -30 11 -71 28 -90 38 -19 10 -40 18 -46 18 -6 0 -17 6 -23 14 -9 10
-3 22 24 52 41 44 44 59 13 68 -43 11 -56 6 -75 -31z m92 -142 c51 -9 65 -18
65 -39 0 -20 -76 -153 -93 -164 -23 -15 -58 -8 -82 16 -39 39 -40 66 -6 141
28 60 33 67 53 60 13 -4 41 -10 63 -14z"/>
<path d="M8966 10181 c-19 -20 -15 -51 7 -69 19 -15 56 4 63 33 12 49 -36 73
-70 36z"/>
<path d="M3865 9880 c-12 -4 -32 -24 -45 -44 -14 -20 -34 -39 -45 -42 -36 -12
-75 -45 -75 -65 0 -14 7 -19 28 -20 22 0 35 -12 71 -66 25 -38 45 -82 48 -104
l6 -39 36 33 c21 17 51 42 67 55 l29 23 -37 -5 c-37 -5 -38 -4 -88 72 -45 67
-50 79 -39 99 6 12 25 27 40 34 37 15 44 9 110 -90 28 -42 54 -75 58 -74 3 1
23 12 44 25 38 24 52 54 19 44 -22 -7 -43 14 -97 97 -49 75 -76 89 -130 67z"/>
<path d="M6350 9806 c0 -13 7 -29 16 -37 17 -14 18 -2 -10 -304 -23 -250 -21
-242 -56 -250 -17 -4 -28 -10 -25 -15 3 -4 -1 -8 -8 -7 -45 1 -68 -4 -61 -15
5 -8 2 -9 -12 -4 -10 4 -34 10 -53 13 -18 3 -54 20 -80 37 -40 27 -56 49 -118
166 -39 74 -95 174 -123 223 -59 102 -51 99 -201 62 -135 -33 -151 -42 -156
-85 -3 -31 19 -370 32 -492 l5 -46 -43 -21 c-23 -11 -65 -27 -92 -36 -49 -14
-50 -14 -90 12 -22 15 -121 110 -221 210 -199 203 -186 196 -259 137 -22 -17
-60 -45 -85 -60 -67 -43 -180 -127 -180 -135 0 -3 17 -40 38 -80 60 -115 103
-228 122 -319 5 -25 19 -78 30 -119 19 -71 19 -75 2 -94 -25 -28 -87 -57 -121
-57 -38 0 -150 59 -284 149 -119 79 -256 151 -290 151 -24 0 -101 -74 -203
-195 -80 -94 -96 -122 -88 -147 3 -12 96 -113 205 -224 145 -147 199 -209 199
-226 0 -28 -37 -64 -79 -79 -41 -14 -136 13 -341 96 -228 94 -262 106 -256 96
3 -5 0 -11 -7 -14 -31 -12 -157 -307 -157 -367 0 -22 169 -155 247 -195 32
-17 90 -62 130 -101 l73 -71 0 -75 c0 -92 -15 -116 -80 -129 -25 -4 -174 -8
-331 -9 l-286 0 -6 -62 c-4 -35 -14 -90 -23 -123 -19 -70 -27 -148 -13 -140 5
4 9 -1 9 -10 0 -9 -5 -13 -11 -9 -7 4 -10 0 -7 -11 2 -13 43 -32 155 -69 83
-29 168 -64 190 -78 21 -15 51 -30 66 -34 56 -13 103 -110 95 -195 -7 -65 -33
-92 -104 -108 -30 -7 -75 -21 -99 -32 -24 -11 -61 -21 -82 -23 -21 -2 -58 -13
-82 -25 -25 -11 -49 -21 -54 -21 -16 0 -81 -34 -101 -52 -11 -10 -23 -18 -27
-18 -6 0 -6 -105 0 -275 l1 -30 137 -33 c76 -18 150 -33 165 -32 72 1 265 -55
272 -79 2 -9 7 -37 11 -63 10 -79 16 -75 -225 -183 -52 -23 -106 -46 -120 -50
-29 -9 -230 -104 -246 -116 -10 -8 10 -99 69 -314 l14 -50 341 -5 c322 -5 341
-6 362 -25 26 -24 70 -107 70 -132 0 -10 -48 -68 -108 -128 -97 -100 -244
-258 -321 -344 -17 -19 -28 -38 -24 -44 3 -6 1 -7 -5 -3 -20 12 -24 -16 -4
-37 10 -12 42 -56 69 -97 47 -70 160 -188 200 -208 13 -7 55 7 153 48 74 32
164 70 200 85 76 32 224 64 269 57 21 -3 40 -16 56 -37 43 -55 35 -79 -67
-214 -29 -39 -63 -85 -76 -103 -62 -89 -117 -164 -125 -169 -5 -3 -9 -13 -11
-22 -1 -9 -9 -24 -18 -34 -9 -10 -18 -31 -20 -48 -3 -27 10 -42 114 -143 64
-63 133 -122 152 -133 35 -19 37 -19 87 1 70 26 199 113 334 225 28 23 73 54
101 70 42 24 57 27 95 21 55 -8 119 -57 119 -90 0 -26 -54 -152 -75 -176 -8
-9 -19 -36 -24 -61 -6 -26 -24 -75 -40 -110 -16 -35 -36 -84 -44 -108 -17 -53
-14 -58 76 -112 32 -18 66 -41 75 -49 9 -8 38 -26 65 -40 26 -14 59 -35 74
-47 14 -13 32 -23 39 -23 20 0 248 232 382 388 50 59 56 62 97 62 57 0 91 -16
104 -49 5 -14 12 -158 15 -318 4 -195 10 -299 17 -312 7 -10 45 -32 85 -50 64
-27 85 -31 162 -31 85 0 89 1 109 28 21 28 103 184 103 195 0 4 15 30 34 59
18 29 37 64 41 78 13 44 98 199 119 219 12 10 43 21 71 25 41 5 59 1 103 -20
36 -17 52 -31 52 -45 0 -10 9 -47 20 -81 10 -35 26 -90 33 -123 52 -212 81
-290 117 -313 41 -25 312 -42 363 -23 26 10 40 52 52 156 6 48 26 179 46 294
5 30 14 60 21 68 16 20 83 53 108 53 22 0 100 -72 100 -93 0 -7 16 -32 35 -54
19 -22 51 -74 71 -116 39 -82 97 -157 120 -157 15 0 201 77 219 90 6 4 21 11
35 15 14 4 51 23 83 42 76 46 77 21 -12 338 -17 61 -34 146 -37 190 -8 103 -3
108 104 104 l78 -4 152 -145 c142 -135 157 -146 220 -167 37 -12 75 -22 85
-22 19 -1 169 100 218 146 25 23 26 27 13 51 -8 15 -14 33 -14 40 0 8 -45 107
-101 220 -55 114 -107 226 -114 250 l-13 43 36 25 c42 28 129 56 176 56 35 0
271 -113 373 -179 32 -21 82 -49 110 -62 l51 -23 90 89 c49 50 100 108 111
129 12 21 31 51 43 66 l22 28 -34 47 c-47 67 -205 255 -290 345 -38 42 -70 81
-70 87 0 51 128 201 171 201 10 0 53 -13 96 -30 115 -43 330 -108 394 -118
l56 -8 48 85 c27 47 63 109 82 136 18 28 33 60 33 73 0 41 -67 107 -307 308
-95 79 -173 151 -173 160 0 20 26 70 57 112 l25 34 257 -8 c141 -4 271 -8 290
-8 l34 -1 18 80 c29 128 49 260 49 325 l0 61 -43 18 c-51 22 -293 91 -421 121
-49 11 -104 27 -121 36 -29 14 -34 21 -39 68 -13 99 -3 105 269 155 82 15 247
50 291 62 l41 11 1 159 c2 149 -10 285 -26 301 -10 10 -284 37 -478 46 -94 5
-176 12 -182 16 -7 4 -12 27 -12 51 0 38 4 47 33 68 17 13 48 31 67 40 19 8
124 59 233 111 110 53 205 96 212 96 25 0 25 16 1 91 -85 267 -108 336 -116
349 -5 8 -24 13 -47 12 -43 -1 -219 -34 -333 -62 -86 -21 -159 -37 -211 -46
-33 -5 -39 -2 -62 28 -28 36 -57 102 -57 126 0 9 92 106 205 216 246 242 237
214 125 406 -40 69 -80 130 -87 136 -26 22 -169 -32 -410 -154 -68 -34 -134
-63 -146 -64 -25 -2 -112 58 -165 115 -25 25 -32 41 -28 55 10 32 107 189 181
292 70 99 115 179 115 204 0 23 -65 90 -188 193 l-112 95 -48 -38 c-26 -22
-130 -122 -231 -223 -176 -176 -185 -184 -206 -170 -49 31 -103 75 -119 97
-17 22 -16 26 5 90 12 37 49 130 81 207 86 201 121 299 109 303 -6 2 -9 7 -6
12 3 4 -34 28 -82 53 -49 24 -110 58 -137 76 -28 17 -55 31 -60 31 -6 0 -33
-32 -61 -70 -48 -67 -74 -100 -158 -203 -21 -25 -50 -63 -64 -84 -14 -21 -38
-52 -54 -69 -16 -17 -26 -34 -22 -39 5 -4 3 -5 -4 -1 -6 3 -14 2 -18 -4 -3 -5
-13 -10 -22 -10 -21 0 -157 66 -171 83 -8 9 -12 101 -12 290 l-1 276 -42 6
c-61 8 -290 26 -292 23 -1 -2 -39 -104 -84 -228 -46 -124 -88 -231 -93 -237
-26 -32 -147 -7 -196 40 -39 36 -42 50 -57 220 -8 89 -20 199 -27 245 l-12 82
-213 0 -213 0 0 -24z m704 -738 c91 3 432 -102 632 -194 43 -20 100 -45 126
-55 91 -36 204 -98 318 -174 164 -110 210 -145 210 -158 0 -7 -22 -34 -47 -62
-42 -45 -153 -192 -301 -397 -68 -94 -189 -241 -230 -279 -18 -17 -40 -31 -50
-32 -10 0 -73 32 -142 72 -166 99 -248 134 -430 185 -270 75 -692 86 -984 26
-226 -46 -432 -133 -623 -263 -43 -29 -127 -81 -187 -116 -101 -59 -110 -62
-133 -50 -14 8 -105 96 -202 197 -153 160 -270 303 -388 474 l-25 37 33 40
c33 37 280 241 398 327 85 63 298 179 401 219 185 72 246 87 815 190 44 8 91
17 105 19 14 3 167 2 340 -1 173 -3 337 -5 364 -5z m1772 -1016 c112 -109 149
-159 254 -342 167 -290 235 -457 411 -1010 35 -109 41 -143 49 -270 12 -190
12 -476 1 -537 -6 -26 -22 -127 -36 -223 -14 -96 -40 -233 -57 -305 -45 -191
-149 -478 -232 -643 -19 -37 -41 -90 -49 -118 -17 -59 -52 -130 -68 -140 -6
-3 -23 3 -37 15 -57 46 -73 53 -131 61 -36 5 -74 18 -93 32 -18 12 -101 57
-185 100 -171 86 -242 130 -292 182 -19 19 -38 33 -42 30 -4 -2 -11 10 -14 28
-5 25 3 56 35 133 79 189 130 328 151 409 11 44 34 124 52 176 l31 95 1 270
c0 212 -4 295 -18 385 -27 169 -63 295 -112 385 -23 44 -53 109 -65 145 -13
35 -54 109 -92 165 -37 55 -96 144 -131 197 -103 162 -117 182 -138 209 -20
25 -20 28 -6 56 23 43 150 167 237 231 41 30 99 76 129 101 64 54 343 269 352
270 3 1 46 -39 95 -87z m-4497 -177 c40 -20 100 -46 133 -60 82 -33 139 -68
196 -118 26 -23 128 -96 226 -162 98 -66 181 -126 183 -132 3 -7 -17 -41 -45
-74 -27 -33 -70 -103 -96 -155 -71 -142 -137 -284 -152 -328 -8 -22 -18 -44
-23 -50 -13 -17 -50 -137 -55 -182 -35 -280 -36 -564 -2 -834 44 -358 82 -460
271 -729 47 -67 115 -159 151 -204 77 -97 94 -146 69 -192 -40 -69 -166 -181
-366 -325 -109 -79 -231 -144 -327 -175 -50 -17 -53 -17 -73 1 -11 10 -57 72
-101 139 -45 66 -113 165 -151 220 -79 112 -131 204 -178 315 -17 41 -52 118
-76 170 -103 218 -134 307 -184 520 -53 228 -75 411 -60 505 6 38 13 160 17
270 6 213 6 212 84 555 69 302 107 413 205 604 168 329 242 456 265 456 9 0
49 -16 89 -35z m2549 -96 c66 -7 124 -21 184 -45 48 -19 91 -34 94 -34 4 0 57
-22 119 -50 217 -96 314 -162 494 -335 167 -161 275 -312 391 -546 119 -240
140 -334 140 -634 0 -357 -44 -532 -224 -885 -76 -150 -109 -196 -229 -319
-102 -104 -168 -160 -232 -197 -66 -37 -191 -129 -234 -170 -51 -50 -240 -110
-406 -129 -33 -3 -113 -15 -178 -26 l-119 -20 -151 21 c-84 12 -155 24 -160
27 -4 2 -65 13 -135 24 -130 20 -218 42 -262 64 -14 7 -63 31 -110 53 -101 49
-187 113 -388 287 -143 125 -230 224 -309 354 -22 37 -150 377 -158 419 -2 13
-8 38 -14 55 -50 158 -34 659 28 887 15 58 38 128 50 155 39 90 96 200 106
207 7 5 7 8 0 8 -7 0 -7 3 0 8 18 13 95 156 95 176 0 32 246 247 340 296 13 7
52 35 86 61 34 27 64 49 68 49 3 0 30 16 61 35 86 56 361 145 585 190 131 26
310 32 468 14z m1355 -3241 c128 -137 328 -362 383 -433 39 -50 74 -118 74
-144 0 -30 -47 -79 -104 -108 -28 -14 -64 -35 -81 -47 -16 -13 -54 -39 -82
-59 -29 -21 -76 -53 -103 -72 -115 -81 -238 -149 -510 -285 -185 -92 -185 -92
-392 -155 -251 -78 -265 -81 -414 -104 -156 -25 -627 -38 -821 -24 -110 9
-129 13 -185 42 -35 18 -99 46 -143 61 -130 46 -419 165 -442 182 -6 5 -47 27
-90 48 -197 99 -358 196 -380 229 -29 43 -30 99 -2 153 11 22 101 122 199 222
97 99 195 200 216 224 57 64 137 122 168 122 15 0 72 -18 127 -39 55 -22 141
-52 191 -66 50 -14 109 -34 132 -44 96 -43 301 -97 435 -116 67 -9 278 -7 356
4 39 5 111 15 160 21 312 38 398 58 528 122 43 22 104 47 136 57 70 22 203
109 296 195 181 168 182 168 206 156 9 -5 73 -69 142 -142z"/>
<path d="M6654 7606 c-11 -8 -32 -45 -46 -83 -15 -37 -45 -117 -67 -176 -38
-100 -81 -232 -102 -317 -5 -23 -3 -78 6 -158 16 -130 27 -160 94 -261 l36
-54 -3 -125 c-3 -178 -1 -176 -194 -187 -48 -3 -106 -12 -130 -21 -24 -8 -90
-26 -148 -40 -153 -36 -280 -91 -435 -188 -164 -103 -247 -165 -327 -243 -70
-67 -81 -90 -69 -141 47 -192 120 -362 194 -453 25 -30 71 -75 103 -99 82 -62
276 -224 293 -244 8 -9 28 -22 45 -30 17 -7 65 -28 106 -45 206 -90 266 -101
570 -108 225 -5 253 -4 350 16 58 12 132 34 165 48 33 14 85 32 115 40 30 8
62 21 70 28 8 7 33 18 55 25 22 7 60 27 85 44 25 18 67 45 94 60 53 31 203
174 252 241 53 72 104 166 126 234 11 36 40 104 63 151 85 170 83 205 -18 294
-92 80 -270 206 -292 206 -3 0 -56 28 -117 63 -62 35 -132 70 -155 80 -61 24
-224 55 -328 62 -120 8 -164 13 -176 21 -6 3 -43 9 -82 13 l-72 6 0 60 c-1
129 41 267 94 304 33 24 83 114 105 190 34 116 6 327 -68 511 -18 47 -37 113
-40 148 -4 34 -11 73 -16 86 -19 50 -92 73 -136 42z m-160 -1432 c21 -8 31
-85 16 -115 -7 -13 -34 -47 -59 -75 -25 -28 -71 -79 -101 -112 -98 -111 -264
-235 -370 -278 -36 -14 -82 -35 -104 -46 -39 -20 -234 -58 -296 -58 -19 0 -53
9 -75 19 -44 20 -135 105 -135 126 0 17 71 107 118 150 60 53 242 185 257 185
3 0 56 25 117 56 114 56 260 104 378 124 36 6 88 14 115 19 62 11 119 13 139
5z m481 -4 c22 -6 82 -16 133 -24 63 -10 112 -25 152 -45 33 -17 70 -31 83
-31 12 0 27 -4 33 -9 5 -6 41 -23 80 -39 192 -78 474 -291 474 -358 0 -31 -55
-109 -99 -141 -28 -21 -41 -23 -168 -23 -221 0 -315 14 -398 55 -156 79 -377
241 -442 326 -72 95 -93 213 -47 268 24 29 30 31 92 31 37 0 85 -5 107 -10z"/>
<path d="M9232 9803 c-64 -31 -113 -119 -98 -177 14 -57 120 -138 160 -123 26
10 19 24 -24 48 -37 21 -70 69 -70 101 0 8 6 22 13 31 11 16 18 14 82 -28 38
-25 76 -44 85 -43 8 2 24 20 35 40 l20 37 -23 46 c-17 35 -32 51 -65 65 -51
24 -72 24 -115 3z m102 -45 c61 -56 31 -96 -43 -58 -46 23 -49 32 -21 60 25
25 33 25 64 -2z"/>
<path d="M3415 9700 c-46 -44 -96 -85 -110 -90 -14 -5 -25 -17 -25 -26 0 -13
7 -16 33 -11 31 5 38 0 97 -65 100 -111 148 -173 156 -202 3 -14 8 -26 11 -26
4 0 96 80 187 161 l40 37 -28 41 c-28 41 -54 56 -42 25 20 -53 18 -60 -31
-107 -26 -26 -54 -47 -60 -47 -16 0 -90 66 -104 92 -8 14 -4 26 18 54 28 36
48 40 96 19 31 -13 18 13 -33 67 l-50 53 0 -39 c0 -37 -41 -116 -60 -116 -7 0
-79 83 -94 107 -4 8 10 30 35 58 42 45 74 56 97 33 9 -9 12 -6 12 13 0 29 -17
49 -42 49 -9 0 -56 -36 -103 -80z"/>
<path d="M9696 9636 c-38 -50 -34 -73 7 -41 11 7 26 11 35 8 23 -8 72 -54 72
-67 0 -6 -51 -64 -113 -129 -106 -111 -114 -117 -152 -117 l-40 -1 28 -22 c16
-12 51 -42 78 -66 27 -24 52 -41 55 -38 3 3 0 21 -6 39 l-13 34 86 87 c47 48
98 103 113 122 29 38 39 37 87 -10 25 -26 26 -28 12 -63 -9 -19 -13 -38 -10
-41 3 -3 24 13 46 36 l41 40 -68 59 c-38 32 -103 92 -145 132 -43 39 -80 72
-82 72 -3 0 -16 -15 -31 -34z"/>
<path d="M3087 9415 c-48 -48 -54 -139 -13 -209 16 -27 23 -52 20 -67 -5 -23
-5 -23 10 -6 18 23 25 19 106 -56 59 -54 62 -59 57 -93 -5 -32 -4 -34 11 -22
9 7 22 20 28 28 7 8 30 34 53 57 55 55 57 85 4 43 -19 -15 -30 -17 -44 -10
-25 14 -129 112 -129 123 0 4 11 19 25 33 14 14 25 29 25 34 0 20 -33 9 -60
-20 l-28 -30 -37 41 c-42 47 -42 65 3 95 l32 22 -23 27 c-22 26 -24 26 -40 10z"/>
<path d="M9893 9181 c-47 -29 -83 -88 -83 -137 0 -62 75 -154 125 -154 24 0
18 21 -15 55 -41 42 -52 85 -33 121 8 16 16 30 18 33 3 2 31 -24 64 -58 32
-33 66 -61 75 -61 26 0 65 51 66 86 0 17 -11 45 -25 65 -49 67 -129 88 -192
50z m139 -48 c25 -23 24 -73 -2 -73 -51 0 -102 49 -79 76 16 19 58 18 81 -3z"/>
<path d="M2855 9100 c-58 -32 -89 -65 -124 -130 -52 -97 -40 -177 35 -254 96
-96 203 -100 302 -11 69 62 96 119 90 195 -11 155 -180 266 -303 200z m112
-75 c99 -50 156 -131 139 -199 -8 -34 -55 -86 -89 -101 -33 -14 -87 -5 -144
22 -38 17 -100 83 -113 119 -17 43 4 104 49 147 49 45 85 48 158 12z"/>
<path d="M10095 8939 c-39 -23 -75 -63 -86 -96 -16 -49 2 -90 66 -153 30 -30
55 -58 55 -63 0 -10 109 -167 116 -167 3 0 0 9 -6 19 -24 46 -13 65 63 113 39
25 77 48 84 52 8 4 23 -9 40 -35 l27 -42 -49 -43 c-28 -24 -70 -53 -95 -65
-25 -12 -47 -23 -49 -25 -2 -2 17 -34 42 -71 24 -37 59 -94 77 -125 17 -32 36
-60 40 -63 4 -3 13 8 18 23 7 21 32 42 89 75 44 26 82 47 85 47 3 0 16 -21 27
-46 21 -43 21 -47 6 -64 -9 -10 -54 -37 -100 -61 -92 -46 -91 -43 -43 -112
l20 -28 17 33 c11 24 35 43 84 69 37 19 77 45 89 56 18 18 19 25 9 55 -6 19
-23 50 -37 69 -14 19 -41 58 -60 87 -36 56 -54 66 -54 30 0 -41 -166 -137
-202 -117 -20 11 -42 64 -35 83 3 8 34 33 69 57 85 57 118 89 118 115 0 34
-68 113 -99 114 -24 0 4 23 73 59 36 18 66 38 66 43 0 15 -54 78 -67 78 -6 0
-13 -10 -15 -22 -4 -31 -271 -210 -306 -206 -22 3 -32 16 -64 90 -38 86 -38
88 -22 119 19 38 61 77 92 85 13 4 32 -1 48 -11 21 -14 25 -23 22 -48 -3 -18
-8 -40 -13 -49 -11 -28 16 -22 55 10 l34 29 -20 33 c-30 52 -66 73 -131 77
-33 2 -67 -2 -78 -8z"/>
<path d="M2594 8490 c-29 -11 -62 -55 -75 -100 -9 -31 -8 -42 9 -76 48 -95
154 -131 225 -78 34 25 77 93 77 119 0 12 -9 30 -20 40 -20 18 -20 17 -20 -14
0 -47 -55 -101 -103 -101 -46 0 -68 25 -40 45 11 8 30 42 43 76 l22 63 -22 18
c-24 19 -61 22 -96 8z m56 -70 c0 -34 -28 -90 -45 -90 -57 0 -73 55 -27 89 36
27 72 28 72 1z"/>
<path d="M2446 8216 c-8 -19 -23 -39 -33 -44 -11 -6 -32 -34 -47 -62 -32 -59
-30 -97 7 -144 20 -25 30 -28 82 -30 52 -1 61 -5 70 -24 5 -12 17 -22 27 -22
9 0 37 -20 61 -45 25 -25 49 -45 53 -45 22 0 76 43 100 80 32 48 43 125 24
170 -19 45 -65 80 -106 80 -34 0 -36 -2 -77 -87 -25 -53 -48 -88 -57 -88 -10
0 -14 8 -12 25 1 14 5 53 8 86 l6 61 -37 29 c-32 24 -36 32 -33 61 5 44 -17
44 -36 -1z m34 -111 c58 -30 43 -105 -20 -105 -30 0 -80 34 -80 54 0 20 39 66
56 66 8 0 28 -7 44 -15z m252 -65 c14 -11 28 -31 30 -44 10 -49 -46 -136 -85
-136 -26 0 -57 28 -57 51 0 22 28 95 48 127 18 27 32 28 64 2z"/>
<path d="M10658 8015 c-90 -47 -111 -115 -60 -196 37 -57 53 -70 99 -76 50 -6
162 49 181 90 21 44 -1 129 -44 172 -30 30 -41 35 -82 35 -30 -1 -64 -10 -94
-25z m164 -52 c41 -48 25 -83 -57 -125 -87 -45 -119 -44 -140 5 -18 42 2 70
74 107 65 34 102 37 123 13z"/>
<path d="M2276 7859 c-89 -70 -66 -199 43 -245 74 -31 140 -11 178 53 26 44
36 123 19 140 -10 10 -26 -17 -26 -47 -1 -44 -52 -90 -100 -90 -31 0 -35 25
-11 86 28 75 27 102 -5 114 -39 15 -69 12 -98 -11z m67 -61 c8 -12 6 -27 -8
-57 -19 -43 -25 -47 -54 -31 -27 14 -33 38 -16 70 22 42 58 51 78 18z"/>
<path d="M11074 7804 c9 -31 -23 -54 -151 -104 -60 -24 -125 -52 -147 -62
l-38 -19 -24 22 c-38 36 -39 3 -3 -77 l31 -69 14 31 c14 33 34 44 277 139 53
21 97 43 97 49 0 14 -38 87 -52 101 -7 7 -8 3 -4 -11z"/>
<path d="M1987 7553 c-4 -27 -9 -59 -12 -73 -6 -25 -6 -25 12 3 10 15 27 27
39 27 26 0 300 -82 333 -99 21 -11 23 -18 17 -54 -4 -23 -13 -48 -21 -56 -17
-18 -45 -12 -258 55 -76 24 -142 44 -146 44 -8 0 -31 -112 -24 -120 3 -3 9 3
15 13 11 21 51 18 148 -13 30 -10 88 -27 127 -40 40 -12 84 -33 97 -47 28 -28
27 -29 50 57 10 36 31 109 48 163 31 100 32 120 5 92 -9 -8 -24 -15 -34 -15
-11 0 -99 25 -196 55 -97 30 -180 55 -185 55 -5 0 -12 -21 -15 -47z"/>
<path d="M10907 7496 c-59 -16 -114 -67 -123 -113 -9 -46 36 -137 78 -159 39
-20 95 -15 164 15 75 32 88 70 59 169 -25 82 -87 113 -178 88z m133 -76 c25
-25 26 -64 1 -89 -23 -23 -110 -51 -158 -51 -28 0 -36 5 -50 35 -16 34 -16 36
3 56 24 23 129 68 162 69 12 0 31 -9 42 -20z"/>
<path d="M11046 7158 c-70 -15 -94 -61 -69 -133 8 -25 30 -58 50 -75 32 -29
40 -31 82 -25 44 6 47 5 58 -22 7 -15 18 -36 25 -45 10 -13 10 -23 2 -35 -16
-27 -233 -145 -275 -150 -44 -6 -79 22 -79 65 0 15 -4 34 -10 42 -7 12 -12 12
-29 -4 -26 -24 -26 -42 -2 -83 21 -34 22 -34 226 -88 104 -28 196 -56 229 -70
17 -8 18 -5 11 41 -8 58 -10 61 -30 44 -19 -16 -114 -9 -165 12 l-34 14 77 39
c70 34 80 37 102 25 14 -7 27 -11 30 -8 7 6 -10 80 -38 168 -11 36 -23 97 -27
135 -12 127 -50 171 -134 153z m84 -77 c14 -28 12 -67 -4 -80 -37 -31 -116 -3
-116 41 0 21 55 58 87 58 12 0 27 -9 33 -19z"/>
<path d="M2074 7130 c-27 -10 -62 -60 -74 -102 -12 -41 5 -110 33 -136 47 -42
152 -55 207 -27 56 29 86 134 56 192 -30 60 -155 100 -222 73z m137 -82 c74
-22 90 -77 33 -114 -22 -15 -35 -15 -100 -6 -45 6 -83 17 -95 28 -26 24 -25
69 3 88 27 19 104 21 159 4z"/>
<path d="M10751 7093 c-28 -35 -35 -64 -27 -117 14 -90 88 -159 165 -154 34 2
48 9 63 29 19 25 19 26 -3 113 -18 72 -20 92 -10 108 9 15 9 23 0 34 -17 20
-38 17 -59 -8 l-19 -23 -21 23 c-28 30 -64 28 -89 -5z m118 -61 c5 -9 15 -43
22 -76 12 -55 11 -59 -7 -73 -46 -34 -124 30 -124 102 0 23 6 48 13 57 24 32
76 27 96 -10z"/>
<path d="M1835 6787 c-22 -54 -33 -142 -24 -199 22 -139 141 -215 276 -177
118 33 191 184 153 320 -9 33 -45 78 -54 68 -3 -2 2 -27 9 -54 26 -103 -15
-209 -94 -242 -44 -19 -151 -12 -188 12 -48 32 -64 73 -61 154 3 62 7 76 27
92 13 10 37 19 54 19 29 0 30 1 15 16 -9 9 -35 19 -57 21 -39 5 -42 3 -56 -30z"/>
<path d="M10880 6448 c0 -19 28 -44 60 -53 14 -4 44 -18 68 -32 48 -27 79 -25
64 4 -5 10 -7 23 -5 30 6 16 -13 26 -72 39 -27 6 -65 15 -82 19 -26 6 -33 4
-33 -7z"/>
<path d="M1940 6161 c0 -18 7 -34 18 -40 12 -8 -3 -10 -60 -11 -43 0 -78 -2
-78 -5 0 -3 7 -21 14 -40 14 -33 17 -35 64 -35 40 0 53 -4 65 -22 l16 -23 6
21 c6 20 15 22 107 26 83 4 104 8 115 23 21 29 16 82 -9 108 l-23 22 -3 -37
-3 -36 -73 -4 c-101 -4 -104 -3 -108 40 -2 30 -8 38 -25 40 -20 3 -23 -1 -23
-27z"/>
<path d="M11415 6135 c-3 -8 -7 -21 -9 -28 -4 -15 -131 -27 -273 -27 -60 0
-77 4 -93 20 -11 11 -21 20 -23 20 -1 0 -2 -51 -2 -112 1 -85 6 -121 18 -145
32 -61 93 -91 152 -75 22 6 35 19 50 50 23 50 32 52 46 13 11 -31 23 -39 74
-47 74 -11 98 51 88 229 -5 106 -16 143 -28 102z m-16 -139 c7 -8 11 -31 9
-52 -3 -32 -7 -39 -32 -45 -16 -5 -45 -5 -65 -1 -33 7 -36 11 -39 46 -2 21 -1
44 2 51 7 18 110 19 125 1z m-164 -16 c10 -31 -13 -86 -41 -99 -57 -26 -119
-7 -140 45 -27 64 -16 74 86 74 80 0 89 -2 95 -20z"/>
<path d="M2196 5945 c-12 -9 -43 -15 -75 -16 -31 0 -80 -4 -110 -8 -87 -12
-111 -60 -73 -140 16 -32 17 -41 6 -56 -13 -18 -10 -52 8 -88 8 -16 10 -16 36
2 32 22 157 36 196 21 16 -6 26 -17 26 -30 0 -11 5 -20 10 -20 11 0 13 114 3
158 -6 24 -23 30 -23 7 0 -25 -36 -35 -123 -35 l-85 0 -7 41 c-5 26 -3 45 4
52 7 7 56 13 121 15 l110 4 0 54 c0 30 -1 54 -2 54 -2 0 -12 -7 -22 -15z"/>
<path d="M11071 5693 c-58 -30 -76 -64 -76 -144 0 -51 4 -72 15 -79 27 -17 31
-11 24 40 -6 47 -5 51 29 85 63 63 82 46 82 -70 0 -76 1 -80 23 -83 31 -5 75
14 102 43 42 45 17 169 -40 203 -38 23 -120 26 -159 5z m153 -74 c27 -13 37
-44 25 -77 -6 -16 -17 -22 -39 -22 -29 0 -30 1 -30 48 0 42 5 62 16 62 2 0 14
-5 28 -11z"/>
<path d="M2208 5496 c4 -70 3 -75 -20 -90 -13 -9 -50 -21 -81 -27 -48 -10 -60
-9 -82 5 -32 21 -32 50 0 82 34 34 49 26 53 -24 3 -34 7 -42 23 -42 19 0 20 4
13 63 -4 34 -11 70 -16 80 -20 38 -105 4 -128 -53 -11 -27 -11 -39 3 -84 20
-64 38 -81 99 -97 40 -11 52 -10 94 6 27 10 62 31 78 47 26 27 28 34 23 82 -6
64 -31 126 -50 126 -11 0 -13 -15 -9 -74z"/>
<path d="M10976 5358 c-4 -35 -10 -73 -13 -85 -3 -16 -1 -23 9 -23 7 0 18 10
23 23 11 23 24 25 137 11 38 -5 47 -10 52 -29 3 -13 1 -35 -6 -49 -14 -31 -11
-35 36 -43 33 -5 36 -4 36 18 0 14 -9 41 -20 61 -16 31 -17 36 -4 31 9 -3 20
0 25 8 8 13 13 99 6 99 -2 0 -18 -7 -35 -15 -25 -13 -42 -14 -96 -5 -81 13
-115 25 -122 45 -12 30 -22 14 -28 -47z"/>
<path d="M2267 5256 c-10 -8 -55 -24 -100 -36 -122 -32 -135 -38 -139 -68 -5
-43 9 -92 31 -113 24 -22 25 -28 11 -63 -7 -18 -5 -38 6 -68 8 -24 19 -62 24
-84 5 -23 14 -54 20 -69 l11 -28 22 21 c20 18 161 62 201 62 16 0 56 -67 56
-93 0 -9 -41 -29 -107 -53 -58 -21 -111 -47 -117 -56 -12 -20 -3 -59 44 -168
37 -90 46 -100 62 -77 17 23 152 77 192 77 18 0 37 -5 44 -12 17 -17 16 3 -2
44 -8 18 -17 44 -20 58 -3 14 -12 34 -20 45 -15 19 -15 18 -10 -11 6 -32 6
-32 -72 -62 -116 -43 -131 -46 -144 -23 -5 11 -10 33 -10 50 0 36 17 46 129
82 40 13 75 29 78 35 2 7 -5 32 -16 55 -21 43 -69 220 -92 334 -13 69 -28 104
-29 67 0 -16 -9 -27 -32 -36 -51 -21 -176 -51 -183 -44 -13 13 -24 82 -15 93
5 6 57 22 115 35 112 27 111 26 99 89 -7 35 -11 36 -37 17z m79 -311 c7 -22
14 -43 14 -46 0 -7 -152 -47 -194 -51 -28 -3 -31 0 -39 40 -5 24 -7 46 -5 48
8 7 183 53 196 51 8 -1 20 -20 28 -42z"/>
<path d="M10947 5160 c-13 -45 -27 -113 -27 -130 0 -18 2 -18 33 -5 34 14 43
13 127 -7 53 -14 60 -21 60 -70 0 -51 -20 -54 -143 -24 -68 16 -100 20 -102
12 -2 -6 -8 -26 -14 -45 -6 -19 -11 -36 -11 -37 0 -2 23 -4 51 -4 27 0 81 -7
120 -16 65 -15 71 -15 107 3 32 16 37 23 40 56 2 22 -1 52 -7 68 -5 16 -6 31
-2 33 9 6 141 -32 157 -45 16 -13 24 0 24 38 0 19 5 43 10 54 16 28 2 44 -21
23 -22 -19 -54 -16 -229 23 -100 23 -118 30 -142 57 -20 23 -28 27 -31 16z"/>
<path d="M10849 4753 c-6 -16 -13 -41 -16 -58 -9 -49 -113 -339 -167 -467 -20
-48 -20 -51 4 -36 15 10 29 10 67 0 67 -18 153 -59 153 -72 0 -7 -8 -25 -17
-41 -23 -39 -55 -38 -154 6 -44 19 -82 35 -85 35 -6 0 -44 -88 -44 -101 0 -6
8 -6 19 1 29 15 56 12 119 -14 32 -12 75 -26 95 -30 32 -6 40 -3 62 20 19 21
25 38 25 73 0 36 6 54 28 81 38 46 54 78 47 90 -4 6 5 39 19 74 30 75 33 94
11 76 -18 -15 -55 -7 -158 32 l-78 30 7 31 c10 46 22 77 31 77 18 -1 180 -39
205 -49 24 -9 30 -6 57 25 27 30 31 43 31 90 0 59 -13 94 -33 94 -10 0 -12
-16 -9 -60 4 -56 3 -60 -19 -69 -45 -17 -59 2 -59 79 0 62 -2 70 -26 89 -17
13 -41 21 -66 21 -33 0 -40 -4 -49 -27z m91 -53 c12 0 40 -89 30 -95 -15 -9
-125 30 -125 45 0 8 6 14 13 13 6 -2 12 4 12 12 0 17 30 36 48 30 8 -3 17 -5
22 -5z m-144 -328 c5 -5 29 -17 54 -26 54 -21 110 -57 110 -72 0 -5 -10 -21
-21 -33 -25 -27 -47 -25 -151 15 -74 28 -81 40 -53 94 15 29 41 39 61 22z"/>
<path d="M2563 4330 c2 -34 0 -36 -72 -72 -88 -45 -121 -49 -121 -14 0 24 -23
56 -40 56 -21 0 -40 -14 -40 -29 0 -28 30 -63 49 -56 12 5 13 3 4 -6 -9 -9 -8
-21 4 -53 25 -64 32 -70 54 -42 21 27 155 96 187 96 24 0 28 -7 61 -111 25
-78 26 -107 5 -137 -24 -35 -41 -26 -80 44 -20 36 -43 68 -51 71 -33 13 -99
-52 -95 -94 3 -37 39 -100 71 -122 37 -27 89 -27 147 0 46 22 94 79 94 111 0
33 -40 125 -65 148 -14 13 -30 40 -35 61 -6 20 -26 70 -45 110 -31 65 -35 70
-32 39z m0 -368 c15 -26 17 -35 7 -47 -28 -34 -90 -7 -90 39 0 54 53 60 83 8z"/>
<path d="M10411 4068 c-1 -9 -19 -51 -41 -93 l-40 -75 41 20 c38 20 41 20 72
3 58 -32 57 -30 30 -79 -25 -45 -25 -45 -9 -98 20 -62 28 -73 79 -111 75 -55
167 -23 183 64 4 20 22 63 41 97 18 33 30 63 27 66 -3 3 -22 4 -44 1 -32 -5
-55 4 -156 56 -141 74 -164 91 -174 134 -4 17 -8 24 -9 15z m222 -251 c67 -35
81 -64 50 -105 -38 -51 -105 -39 -168 30 -34 36 -36 41 -21 57 9 10 16 22 16
27 0 19 24 34 45 28 11 -3 46 -20 78 -37z"/>
<path d="M2780 3760 c-30 -5 -94 -8 -142 -9 -101 -1 -105 -6 -53 -66 30 -35
34 -37 35 -18 0 12 8 26 18 32 18 9 162 34 168 28 2 -1 -25 -33 -60 -71 -57
-61 -66 -67 -85 -57 -11 7 -21 9 -21 6 0 -12 49 -102 69 -125 l20 -25 1 30 c0
35 11 53 98 155 47 55 62 81 60 100 -3 29 -21 32 -108 20z"/>
<path d="M10316 3580 c-48 -42 -72 -107 -57 -152 14 -41 61 -88 118 -118 l43
-22 45 22 c70 34 107 101 95 173 -8 46 -39 79 -96 106 -63 30 -106 27 -148 -9z
m90 -49 c59 -27 114 -78 114 -107 0 -30 -55 -67 -85 -58 -35 10 -122 73 -132
97 -12 26 -1 61 24 76 24 14 32 13 79 -8z"/>
<path d="M2904 3522 c-51 -24 -114 -97 -114 -132 0 -31 48 -111 81 -134 41
-28 84 -30 131 -6 56 28 83 54 103 97 16 32 16 38 1 77 -37 96 -120 136 -202
98z m138 -59 c27 -25 22 -59 -16 -101 -71 -78 -140 -92 -171 -32 -20 39 -13
52 57 105 64 48 99 56 130 28z"/>
<path d="M10155 3347 c-9 -19 -29 -47 -45 -62 -17 -16 -30 -32 -30 -37 0 -4
19 -5 43 -2 41 6 44 4 106 -56 70 -67 99 -86 111 -73 23 26 58 88 54 95 -8 12
-21 10 -38 -8 -15 -14 -21 -11 -76 36 -63 55 -90 90 -90 114 0 30 -19 26 -35
-7z"/>
<path d="M3140 3225 c-19 -14 -39 -25 -45 -25 -6 0 -16 -5 -22 -11 -9 -9 -5
-19 15 -39 15 -15 42 -46 61 -69 18 -23 35 -40 38 -38 2 3 -1 24 -8 46 -34
114 84 123 141 11 36 -71 25 -132 -37 -201 -90 -100 -204 -88 -284 31 -34 51
-35 64 -9 98 33 42 8 50 -39 13 -23 -18 -41 -35 -41 -37 0 -18 48 -91 91 -138
67 -73 117 -100 190 -100 45 -1 65 5 105 29 159 99 148 285 -25 415 -62 47
-85 49 -131 15z"/>
<path d="M10005 3122 c-57 -13 -137 -117 -121 -158 5 -13 12 -9 36 24 16 23
38 46 49 51 28 16 87 13 101 -3 9 -12 4 -23 -28 -58 -74 -82 -79 -109 -21
-138 34 -18 46 -19 73 -10 67 22 114 106 96 170 -24 83 -110 140 -185 122z
m143 -168 c2 -25 -3 -37 -24 -53 -24 -19 -55 -21 -72 -6 -8 7 10 44 33 70 33
34 59 30 63 -11z"/>
<path d="M10245 3106 c-29 -23 -29 -24 -12 -50 22 -32 50 -33 66 -2 11 20 10
28 -4 50 -10 14 -18 26 -19 26 0 0 -14 -11 -31 -24z"/>
<path d="M4227 2224 c-16 -16 -5 -49 29 -91 34 -41 36 -46 23 -70 -7 -14 -25
-35 -39 -46 -28 -24 -110 -141 -110 -157 0 -5 13 -31 29 -58 21 -33 44 -54 75
-70 44 -21 46 -23 46 -66 0 -51 17 -96 36 -96 33 0 44 13 44 51 0 29 6 42 23
54 14 9 29 34 36 58 15 51 30 86 50 110 19 23 136 24 168 2 33 -23 39 -84 14
-139 -20 -46 -16 -63 7 -26 6 11 18 17 25 14 23 -8 43 29 55 104 7 40 17 81
24 91 17 28 65 34 124 15 41 -13 56 -23 73 -54 27 -49 27 -91 0 -116 -75 -66
-101 -148 -57 -178 35 -24 54 -19 87 23 28 34 31 46 31 104 0 87 8 105 79 176
67 69 87 74 160 41 48 -22 48 -21 -11 -81 -33 -33 -36 -67 -7 -103 26 -33 42
-33 67 -1 11 14 25 25 31 25 6 0 11 4 11 10 0 5 18 14 39 20 74 20 122 -19
129 -104 6 -72 -11 -119 -53 -148 -19 -12 -39 -36 -45 -52 -9 -26 -7 -34 18
-65 37 -46 73 -63 147 -70 48 -5 62 -10 71 -28 11 -24 56 -63 72 -63 28 0 35
33 33 173 l-2 144 40 27 c43 30 58 63 53 112 -4 39 -32 50 -74 28 -26 -14 -35
-13 -81 2 -29 9 -72 27 -97 40 -25 13 -62 31 -83 40 -21 9 -43 26 -49 38 -21
39 -59 79 -96 99 -20 11 -50 30 -65 43 -16 13 -37 24 -47 24 -9 0 -31 3 -47 6
-28 6 -31 3 -37 -28 -8 -42 -29 -69 -53 -69 -83 -2 -119 6 -162 32 -42 26 -83
38 -231 70 -30 6 -93 29 -140 51 -47 22 -103 46 -125 54 -22 8 -69 33 -105 54
-66 40 -119 58 -133 44z m282 -215 c17 -6 31 -14 31 -17 0 -10 -45 -72 -52
-72 -4 0 -12 -18 -18 -40 -9 -33 -18 -42 -54 -59 -24 -10 -47 -24 -50 -30 -13
-20 -54 -11 -94 22 -23 17 -44 40 -47 50 -10 29 38 91 97 125 58 34 128 42
187 21z"/>
<path d="M3802 2148 c-14 -14 -16 -32 -3 -24 4 3 6 -6 3 -20 -7 -36 23 -64 68
-64 21 0 43 6 49 14 15 18 5 58 -20 85 -22 23 -77 29 -97 9z"/>
<path d="M8390 2059 c-22 -16 -66 -41 -98 -56 -31 -14 -69 -32 -84 -40 -16 -8
-28 -11 -28 -6 0 4 -7 -3 -16 -15 -15 -21 -15 -24 1 -35 15 -11 15 -15 1 -42
-23 -43 -20 -65 13 -100 16 -16 43 -64 61 -105 17 -41 37 -82 43 -90 17 -21
53 -40 76 -40 41 0 32 45 -40 196 -61 126 -69 162 -41 188 23 20 96 39 121 31
9 -3 26 -34 40 -72 12 -37 33 -80 46 -95 13 -15 33 -56 44 -90 12 -35 28 -71
35 -80 11 -16 15 -16 34 -2 31 21 30 93 0 137 -13 18 -26 34 -30 37 -3 3 -10
18 -13 33 -4 15 -22 61 -40 103 -27 62 -31 81 -24 112 5 22 4 41 -2 48 -16 20
-58 13 -99 -17z"/>
<path d="M8788 1883 c-11 -3 -18 -14 -18 -28 0 -22 3 -24 33 -18 41 8 41 7 27
32 -11 22 -12 22 -42 14z"/>
<path d="M8034 1700 c-25 -10 -74 -66 -74 -85 0 -30 27 -37 68 -16 46 24 72
72 52 96 -14 17 -17 17 -46 5z"/>
<path d="M5131 1609 c-13 -5 -32 -7 -42 -4 -14 5 -19 1 -19 -14 0 -12 4 -21
10 -21 5 0 27 -17 49 -37 50 -46 56 -84 21 -131 -13 -17 -20 -35 -16 -39 8 -8
60 20 94 50 29 27 29 96 -1 157 -24 48 -49 59 -96 39z"/>
<path d="M7699 1548 c-49 -97 -49 -113 5 -164 36 -35 52 -44 81 -44 47 0 52
18 26 86 -12 31 -21 79 -21 108 0 98 -45 104 -91 14z"/>
<path d="M6433 1461 c-30 -25 -29 -46 6 -90 16 -20 42 -61 58 -91 33 -60 70
-88 123 -92 32 -3 35 -1 38 27 2 23 -7 42 -38 80 -43 51 -70 96 -70 115 0 6
-10 24 -22 40 -26 35 -62 39 -95 11z"/>
</g>
</svg>
